M48
; DRILL file {KiCad 5.1.4+dfsg1-1~bpo10+1} date Sun 01 Dec 2019 05:30:45 PM CET
; FORMAT={-:-/ absolute / metric / decimal}
; #@! TF.CreationDate,2019-12-01T17:30:45+01:00
; #@! TF.GenerationSoftware,Kicad,Pcbnew,5.1.4+dfsg1-1~bpo10+1
; #@! TF.FileFunction,Plated,1,4,PTH
FMAT,2
METRIC
T1C0.400
T2C0.800
T3C0.850
T4C0.900
T5C1.000
T6C1.100
T7C1.300
T8C1.500
T9C1.600
T10C1.700
T11C2.000
T12C4.300
%
G90
G05
T1
X104.8Y-108.3
X105.6Y-110.7
X114.2Y-130.2
X115.9Y-134.4
X116.2Y-132.8
X116.6Y-109.2
X117.2Y-114.6
X117.4Y-138.4
X119.6Y-123.6
X119.7Y-144.3
X121.8Y-129.9
X122.6Y-107.8
X122.6Y-113.0
X126.4Y-118.6
X127.8Y-127.9
X129.8Y-121.9
X130.366Y-99.366
X130.4Y-106.2
X132.8Y-97.0
X132.9Y-129.4
X134.2Y-113.1
X134.2Y-117.0
X134.2Y-118.2
X134.5Y-129.4
X135.0Y-136.3
X135.2Y-103.4
X138.5Y-128.1
X140.0Y-123.3
X140.8Y-103.0
X143.4Y-135.8
X143.6Y-109.3
X143.6Y-110.6
X143.6Y-111.9
X143.6Y-113.2
X143.6Y-114.4
X143.6Y-117.0
X143.6Y-118.2
X145.4Y-87.212
X146.0Y-120.8
X147.5Y-85.0
X148.4Y-87.452
X148.4Y-89.5
X148.7Y-86.4
X148.7Y-88.5
X150.8Y-88.6
X150.8Y-89.8
X150.8Y-91.0
X153.783Y-88.617
X157.9Y-72.5
X158.0Y-129.8
X158.2Y-108.8
X159.3Y-136.6
X159.5Y-109.7
X160.1Y-63.5
X161.0Y-110.0
X161.0Y-126.8
X161.0Y-136.6
X161.6Y-118.1
X163.0Y-136.75
X163.5Y-67.3
X163.5Y-71.5
X163.7Y-82.6
X165.8Y-118.1
X166.0Y-119.4
X166.0Y-130.0
X166.0Y-136.5
X166.6Y-110.6
X166.737Y-107.4
X166.9Y-99.2
X168.1Y-126.1
X168.55Y-119.8
X169.4Y-118.7
X170.0Y-134.75
X170.6Y-118.6
X171.0Y-109.7
X171.5Y-130.4
X171.6Y-107.4
X171.7Y-113.5
X171.9Y-118.6
X172.0Y-134.75
X172.9Y-62.2
X173.4Y-105.4
X174.7Y-74.5
X174.8Y-69.7
X174.8Y-104.0
X174.9Y-123.2
X175.8Y-128.6
X175.9Y-113.3
X176.4Y-65.6
X176.7Y-106.9
X177.0Y-127.2
X177.3Y-113.3
X178.2Y-128.6
X178.525Y-71.575
X179.9Y-66.6
X180.8Y-125.6
X181.25Y-70.5
X181.3Y-71.8
X181.6Y-63.7
X181.826Y-66.874
X183.95Y-122.85
X186.38Y-73.58
X186.4Y-63.9
X187.6Y-76.0
X187.8Y-70.9
X187.9Y-139.7
X188.4Y-102.1
X189.6Y-90.8
X189.9Y-128.2
X189.9Y-134.2
X190.1Y-130.9
X190.6Y-64.9
X191.4Y-123.2
X191.8Y-71.3
X193.289Y-131.011
X193.3Y-121.2
X193.6Y-65.9
X194.1Y-136.8
X194.4Y-135.2
X194.75Y-124.85
X195.1Y-92.1
X195.1Y-102.1
X196.1Y-126.9
X196.5Y-76.3
X197.2Y-130.7
X197.219Y-127.471
X197.248Y-128.702
X198.9Y-122.3
X199.4Y-100.4
X200.0Y-72.1
X200.0Y-131.1
X200.2Y-69.2
X200.2Y-70.6
X200.7Y-112.6
X200.8Y-117.8
X202.8Y-128.1
X203.0Y-68.1
X203.0Y-64.4
X203.4Y-134.6
X205.2Y-128.5
X206.775Y-68.025
X214.175Y-66.975
X223.91Y-110.71
X223.91Y-123.29
T2
X174.4Y-147.0
X203.0Y-89.0
X205.0Y-86.0
X205.0Y-125.0
X206.0Y-89.0
X206.5Y-108.3
X208.0Y-86.0
X208.0Y-125.0
X209.0Y-89.0
X209.5Y-83.0
X209.5Y-108.3
X209.5Y-128.0
X211.0Y-86.0
X211.0Y-125.0
X212.0Y-89.0
X212.5Y-83.0
X212.5Y-108.3
X212.5Y-128.0
X214.0Y-86.0
X214.0Y-125.0
X215.0Y-89.0
X215.5Y-83.0
X215.5Y-108.3
X215.5Y-128.0
X217.0Y-86.0
X217.0Y-125.0
X218.0Y-89.0
X218.5Y-83.0
X218.5Y-108.3
X218.5Y-128.0
X220.0Y-86.0
X220.0Y-125.0
X221.5Y-83.0
X221.5Y-108.3
X221.5Y-128.0
X223.0Y-86.0
X224.5Y-83.0
X224.5Y-128.0
X169.1Y-75.92
X169.1Y-78.46
X169.1Y-81.0
X180.3Y-81.8
X182.84Y-81.8
X185.38Y-81.8
X36.0Y-57.0
X36.0Y-59.54
X43.62Y-57.0
X43.62Y-59.54
X180.3Y-76.1
X182.84Y-76.1
X185.38Y-76.1
X179.6Y-114.4
X179.6Y-116.94
X179.6Y-119.48
X177.5Y-131.42
X177.5Y-133.96
X177.5Y-136.5
X198.8Y-114.4
X198.8Y-116.94
X198.8Y-119.48
X193.3Y-114.4
X193.3Y-116.94
X193.3Y-119.48
X40.0Y-74.4
X40.0Y-79.4
X159.42Y-132.0
X161.96Y-132.0
X164.5Y-132.0
X198.42Y-81.8
X200.96Y-81.8
X203.5Y-81.8
X198.42Y-76.1
X200.96Y-76.1
X203.5Y-76.1
X40.0Y-65.0
X40.0Y-70.0
X187.8Y-127.2
X187.8Y-129.74
X187.8Y-132.28
X27.6Y-73.8
X27.6Y-78.88
X35.22Y-73.8
X35.22Y-78.88
X157.12Y-114.4
X159.66Y-114.4
X162.2Y-114.4
X187.8Y-114.4
X187.8Y-116.94
X187.8Y-119.48
T3
X102.0Y-56.0
X104.54Y-56.0
X107.08Y-56.0
X112.16Y-56.0
X114.7Y-56.0
X117.24Y-56.0
X119.78Y-56.0
X76.0Y-56.0
X78.54Y-56.0
X81.08Y-56.0
X86.16Y-56.0
X88.7Y-56.0
X91.24Y-56.0
X93.78Y-56.0
T4
X175.0Y-95.8
X175.0Y-98.34
X192.9Y-94.0
X192.9Y-96.54
X107.8Y-139.96
X107.8Y-142.5
X192.9Y-104.0
X192.9Y-106.54
X126.0Y-54.8
X126.0Y-57.34
X168.4Y-95.8
X168.4Y-98.34
X28.0Y-123.0
X28.0Y-128.1
X38.0Y-123.0
X38.0Y-128.1
X113.1Y-139.96
X113.1Y-142.5
X199.5Y-104.0
X199.5Y-106.54
X182.6Y-125.06
X182.6Y-127.6
X159.2Y-125.06
X159.2Y-127.6
X199.5Y-94.0
X199.5Y-96.54
T5
X67.0Y-80.0
X67.0Y-116.5
X67.0Y-138.0
X88.0Y-70.0
X88.0Y-74.0
X98.0Y-63.2
X121.4Y-90.7
X121.4Y-93.24
X121.4Y-95.78
X121.4Y-98.32
X121.4Y-100.86
X121.4Y-103.4
X101.0Y-114.4
X101.0Y-116.94
X101.0Y-119.48
X101.0Y-122.02
X101.0Y-124.56
X101.0Y-127.1
X28.0Y-133.0
X38.0Y-133.0
X101.0Y-79.1
X101.0Y-81.64
X101.0Y-84.18
X101.0Y-86.72
X101.0Y-89.26
X101.0Y-91.8
X100.06Y-97.38
X100.06Y-99.92
X100.06Y-102.46
X100.06Y-105.0
X102.6Y-97.38
X102.6Y-99.92
X102.6Y-102.46
X102.6Y-105.0
X28.0Y-118.0
X38.0Y-118.0
X107.96Y-78.94
X107.96Y-81.48
X107.96Y-84.02
X107.96Y-86.56
X107.96Y-89.1
X107.96Y-91.64
X107.96Y-94.18
X107.96Y-96.72
X107.96Y-99.26
X107.96Y-101.8
X107.96Y-104.34
X107.96Y-106.88
X107.96Y-109.42
X107.96Y-111.96
X107.96Y-114.5
X107.96Y-117.04
X107.96Y-119.58
X107.96Y-122.12
X107.96Y-124.66
X107.96Y-127.2
X110.5Y-78.94
X110.5Y-81.48
X110.5Y-84.02
X110.5Y-86.56
X110.5Y-89.1
X110.5Y-91.64
X110.5Y-94.18
X110.5Y-96.72
X110.5Y-99.26
X110.5Y-101.8
X110.5Y-104.34
X110.5Y-106.88
X110.5Y-109.42
X110.5Y-111.96
X110.5Y-114.5
X110.5Y-117.04
X110.5Y-119.58
X110.5Y-122.12
X110.5Y-124.66
X110.5Y-127.2
X116.6Y-90.7
X116.6Y-93.24
X116.6Y-95.78
X116.6Y-98.32
X116.6Y-100.86
X116.6Y-103.4
X38.0Y-96.92
X38.0Y-102.0
X116.66Y-78.98
X116.66Y-81.52
X116.66Y-84.06
X116.66Y-86.6
X119.2Y-78.98
X119.2Y-81.52
X119.2Y-84.06
X119.2Y-86.6
X137.6Y-82.6
X137.6Y-85.14
X137.6Y-87.68
X137.6Y-90.22
X137.6Y-92.76
X137.6Y-95.3
X137.6Y-97.84
X137.6Y-100.38
X140.14Y-82.6
X140.14Y-85.14
X140.14Y-87.68
X140.14Y-90.22
X140.14Y-92.76
X140.14Y-95.3
X140.14Y-97.84
X140.14Y-100.38
X153.22Y-143.0
X153.22Y-145.54
X155.76Y-143.0
X155.76Y-145.54
X158.3Y-143.0
X158.3Y-145.54
X160.84Y-143.0
X160.84Y-145.54
X163.38Y-143.0
X163.38Y-145.54
X165.92Y-143.0
X165.92Y-145.54
X168.46Y-143.0
X168.46Y-145.54
X171.0Y-143.0
X171.0Y-145.54
X38.0Y-86.92
X38.0Y-92.0
X183.22Y-143.0
X183.22Y-145.54
X185.76Y-143.0
X185.76Y-145.54
X188.3Y-143.0
X188.3Y-145.54
X190.84Y-143.0
X190.84Y-145.54
X193.38Y-143.0
X193.38Y-145.54
X195.92Y-143.0
X195.92Y-145.54
X198.46Y-143.0
X198.46Y-145.54
X201.0Y-143.0
X201.0Y-145.54
T6
X48.0Y-54.0
X50.54Y-54.0
X53.08Y-54.0
X55.62Y-54.0
X122.5Y-135.9
X122.5Y-142.4
X127.0Y-135.9
X127.0Y-142.4
T7
X164.6Y-56.0
X169.68Y-56.0
X174.76Y-56.0
X179.84Y-56.0
X184.92Y-56.0
X190.0Y-56.0
X62.92Y-56.0
X68.0Y-56.0
X132.6Y-56.0
X137.68Y-56.0
X142.76Y-56.0
X147.84Y-56.0
X152.92Y-56.0
X158.0Y-56.0
X26.0Y-87.0
X26.0Y-92.08
X26.0Y-97.16
X26.0Y-102.24
X26.0Y-107.32
X26.0Y-112.4
X196.6Y-56.0
X201.68Y-56.0
X206.76Y-56.0
X211.84Y-56.0
X216.92Y-56.0
X222.0Y-56.0
T8
X47.0Y-96.0
X47.0Y-116.8
X92.0Y-108.8
X92.0Y-116.8
X159.0Y-77.6
X159.0Y-101.5
X216.0Y-95.0
X216.0Y-100.45
X216.0Y-105.9
X184.4Y-91.5
X47.0Y-125.0
X47.0Y-145.8
X92.0Y-137.8
X92.0Y-145.8
X47.0Y-67.0
X47.0Y-87.8
X92.0Y-79.8
X92.0Y-87.8
X184.4Y-101.5
X210.0Y-95.0
X210.0Y-100.45
X210.0Y-105.9
X136.3Y-141.66
X159.0Y-91.5
T9
X229.0Y-95.0
X229.0Y-103.0
X237.0Y-95.0
X237.0Y-103.0
X229.0Y-122.5
X229.0Y-130.5
X237.0Y-122.5
X237.0Y-130.5
X229.0Y-108.0
X229.0Y-116.0
X237.0Y-108.0
X237.0Y-116.0
X229.0Y-80.5
X229.0Y-88.5
X237.0Y-80.5
X237.0Y-88.5
T10
X156.46Y-75.06
X156.46Y-80.14
X161.54Y-75.06
X161.54Y-80.14
X156.46Y-98.96
X156.46Y-104.04
X161.54Y-98.96
X161.54Y-104.04
X181.86Y-88.96
X181.86Y-94.04
X186.94Y-88.96
X186.94Y-94.04
X181.86Y-98.96
X181.86Y-104.04
X186.94Y-98.96
X186.94Y-104.04
X133.76Y-139.12
X133.76Y-144.2
X138.84Y-139.12
X138.84Y-144.2
X156.46Y-88.96
X156.46Y-94.04
X161.54Y-88.96
X161.54Y-94.04
T11
X218.0Y-132.0
X218.0Y-142.0
X218.0Y-69.0
X218.0Y-79.0
T12
X233.0Y-57.0
X27.0Y-57.0
X27.0Y-143.0
X233.0Y-143.0
T0
M30
