%FSLAX45Y45*%
G04 Gerber Fmt 4.5, Leading zero omitted, Abs format (unit mm)*
G04 Created by KiCad (PCBNEW 5.1.4+dfsg1-1~bpo10+1) date 2019-12-01 17:30:46*
%MOMM*%
%LPD*%
G04 APERTURE LIST*
%ADD10C,0.150000*%
%ADD11C,0.200000*%
%ADD12C,0.300000*%
G04 APERTURE END LIST*
D10*
X24000000Y-15000000D02*
X24000000Y-5000000D01*
X2000000Y-5000000D02*
X24000000Y-5000000D01*
X2000000Y-15000000D02*
X24000000Y-15000000D01*
X2000000Y-5000000D02*
X2000000Y-15000000D01*
D11*
X9965000Y-7265000D02*
X10235000Y-7535000D01*
X10235000Y-7265000D02*
X9965000Y-7535000D01*
X14865000Y-13065000D02*
X15135000Y-13335000D01*
X15135000Y-13065000D02*
X14865000Y-13335000D01*
X14865000Y-7265000D02*
X15135000Y-7535000D01*
X15135000Y-7265000D02*
X14865000Y-7535000D01*
X9965000Y-13065000D02*
X10235000Y-13335000D01*
X10235000Y-13065000D02*
X9965000Y-13335000D01*
D12*
X2278928Y-15473214D02*
X2278928Y-15173214D01*
X2350357Y-15173214D01*
X2393214Y-15187500D01*
X2421786Y-15216071D01*
X2436071Y-15244643D01*
X2450357Y-15301786D01*
X2450357Y-15344643D01*
X2436071Y-15401786D01*
X2421786Y-15430357D01*
X2393214Y-15458929D01*
X2350357Y-15473214D01*
X2278928Y-15473214D01*
X2578928Y-15473214D02*
X2578928Y-15273214D01*
X2578928Y-15330357D02*
X2593214Y-15301786D01*
X2607500Y-15287500D01*
X2636071Y-15273214D01*
X2664643Y-15273214D01*
X2764643Y-15473214D02*
X2764643Y-15273214D01*
X2764643Y-15173214D02*
X2750357Y-15187500D01*
X2764643Y-15201786D01*
X2778928Y-15187500D01*
X2764643Y-15173214D01*
X2764643Y-15201786D01*
X2950357Y-15473214D02*
X2921786Y-15458929D01*
X2907500Y-15430357D01*
X2907500Y-15173214D01*
X3107500Y-15473214D02*
X3078928Y-15458929D01*
X3064643Y-15430357D01*
X3064643Y-15173214D01*
X3450357Y-15473214D02*
X3450357Y-15173214D01*
X3550357Y-15387500D01*
X3650357Y-15173214D01*
X3650357Y-15473214D01*
X3921786Y-15473214D02*
X3921786Y-15316071D01*
X3907500Y-15287500D01*
X3878928Y-15273214D01*
X3821786Y-15273214D01*
X3793214Y-15287500D01*
X3921786Y-15458929D02*
X3893214Y-15473214D01*
X3821786Y-15473214D01*
X3793214Y-15458929D01*
X3778928Y-15430357D01*
X3778928Y-15401786D01*
X3793214Y-15373214D01*
X3821786Y-15358929D01*
X3893214Y-15358929D01*
X3921786Y-15344643D01*
X4064643Y-15273214D02*
X4064643Y-15573214D01*
X4064643Y-15287500D02*
X4093214Y-15273214D01*
X4150357Y-15273214D01*
X4178928Y-15287500D01*
X4193214Y-15301786D01*
X4207500Y-15330357D01*
X4207500Y-15416071D01*
X4193214Y-15444643D01*
X4178928Y-15458929D01*
X4150357Y-15473214D01*
X4093214Y-15473214D01*
X4064643Y-15458929D01*
X4336071Y-15444643D02*
X4350357Y-15458929D01*
X4336071Y-15473214D01*
X4321786Y-15458929D01*
X4336071Y-15444643D01*
X4336071Y-15473214D01*
X4336071Y-15287500D02*
X4350357Y-15301786D01*
X4336071Y-15316071D01*
X4321786Y-15301786D01*
X4336071Y-15287500D01*
X4336071Y-15316071D01*
X1722500Y-15832500D02*
X1992500Y-16102500D01*
X1992500Y-15832500D02*
X1722500Y-16102500D01*
X2264643Y-15831786D02*
X2278928Y-15817500D01*
X2307500Y-15803214D01*
X2378928Y-15803214D01*
X2407500Y-15817500D01*
X2421786Y-15831786D01*
X2436071Y-15860357D01*
X2436071Y-15888929D01*
X2421786Y-15931786D01*
X2250357Y-16103214D01*
X2436071Y-16103214D01*
X2564643Y-16074643D02*
X2578928Y-16088929D01*
X2564643Y-16103214D01*
X2550357Y-16088929D01*
X2564643Y-16074643D01*
X2564643Y-16103214D01*
X2678928Y-15803214D02*
X2878928Y-15803214D01*
X2750357Y-16103214D01*
X3050357Y-15803214D02*
X3078928Y-15803214D01*
X3107500Y-15817500D01*
X3121786Y-15831786D01*
X3136071Y-15860357D01*
X3150357Y-15917500D01*
X3150357Y-15988929D01*
X3136071Y-16046071D01*
X3121786Y-16074643D01*
X3107500Y-16088929D01*
X3078928Y-16103214D01*
X3050357Y-16103214D01*
X3021786Y-16088929D01*
X3007500Y-16074643D01*
X2993214Y-16046071D01*
X2978928Y-15988929D01*
X2978928Y-15917500D01*
X2993214Y-15860357D01*
X3007500Y-15831786D01*
X3021786Y-15817500D01*
X3050357Y-15803214D01*
X3278928Y-16103214D02*
X3278928Y-15903214D01*
X3278928Y-15931786D02*
X3293214Y-15917500D01*
X3321786Y-15903214D01*
X3364643Y-15903214D01*
X3393214Y-15917500D01*
X3407500Y-15946071D01*
X3407500Y-16103214D01*
X3407500Y-15946071D02*
X3421786Y-15917500D01*
X3450357Y-15903214D01*
X3493214Y-15903214D01*
X3521786Y-15917500D01*
X3536071Y-15946071D01*
X3536071Y-16103214D01*
X3678928Y-16103214D02*
X3678928Y-15903214D01*
X3678928Y-15931786D02*
X3693214Y-15917500D01*
X3721786Y-15903214D01*
X3764643Y-15903214D01*
X3793214Y-15917500D01*
X3807500Y-15946071D01*
X3807500Y-16103214D01*
X3807500Y-15946071D02*
X3821786Y-15917500D01*
X3850357Y-15903214D01*
X3893214Y-15903214D01*
X3921786Y-15917500D01*
X3936071Y-15946071D01*
X3936071Y-16103214D01*
X4521786Y-15788929D02*
X4264643Y-16174643D01*
X4907500Y-15803214D02*
X4936071Y-15803214D01*
X4964643Y-15817500D01*
X4978928Y-15831786D01*
X4993214Y-15860357D01*
X5007500Y-15917500D01*
X5007500Y-15988929D01*
X4993214Y-16046071D01*
X4978928Y-16074643D01*
X4964643Y-16088929D01*
X4936071Y-16103214D01*
X4907500Y-16103214D01*
X4878928Y-16088929D01*
X4864643Y-16074643D01*
X4850357Y-16046071D01*
X4836071Y-15988929D01*
X4836071Y-15917500D01*
X4850357Y-15860357D01*
X4864643Y-15831786D01*
X4878928Y-15817500D01*
X4907500Y-15803214D01*
X5136071Y-16074643D02*
X5150357Y-16088929D01*
X5136071Y-16103214D01*
X5121786Y-16088929D01*
X5136071Y-16074643D01*
X5136071Y-16103214D01*
X5436071Y-16103214D02*
X5264643Y-16103214D01*
X5350357Y-16103214D02*
X5350357Y-15803214D01*
X5321786Y-15846071D01*
X5293214Y-15874643D01*
X5264643Y-15888929D01*
X5621786Y-15803214D02*
X5650357Y-15803214D01*
X5678928Y-15817500D01*
X5693214Y-15831786D01*
X5707500Y-15860357D01*
X5721786Y-15917500D01*
X5721786Y-15988929D01*
X5707500Y-16046071D01*
X5693214Y-16074643D01*
X5678928Y-16088929D01*
X5650357Y-16103214D01*
X5621786Y-16103214D01*
X5593214Y-16088929D01*
X5578928Y-16074643D01*
X5564643Y-16046071D01*
X5550357Y-15988929D01*
X5550357Y-15917500D01*
X5564643Y-15860357D01*
X5578928Y-15831786D01*
X5593214Y-15817500D01*
X5621786Y-15803214D01*
X5978928Y-15803214D02*
X5921786Y-15803214D01*
X5893214Y-15817500D01*
X5878928Y-15831786D01*
X5850357Y-15874643D01*
X5836071Y-15931786D01*
X5836071Y-16046071D01*
X5850357Y-16074643D01*
X5864643Y-16088929D01*
X5893214Y-16103214D01*
X5950357Y-16103214D01*
X5978928Y-16088929D01*
X5993214Y-16074643D01*
X6007500Y-16046071D01*
X6007500Y-15974643D01*
X5993214Y-15946071D01*
X5978928Y-15931786D01*
X5950357Y-15917500D01*
X5893214Y-15917500D01*
X5864643Y-15931786D01*
X5850357Y-15946071D01*
X5836071Y-15974643D01*
X6121786Y-15803214D02*
X6121786Y-15860357D01*
X6236071Y-15803214D02*
X6236071Y-15860357D01*
X6678928Y-16217500D02*
X6664643Y-16203214D01*
X6636071Y-16160357D01*
X6621786Y-16131786D01*
X6607500Y-16088929D01*
X6593214Y-16017500D01*
X6593214Y-15960357D01*
X6607500Y-15888929D01*
X6621786Y-15846071D01*
X6636071Y-15817500D01*
X6664643Y-15774643D01*
X6678928Y-15760357D01*
X6921786Y-15903214D02*
X6921786Y-16103214D01*
X6850357Y-15788929D02*
X6778928Y-16003214D01*
X6964643Y-16003214D01*
X7307500Y-16103214D02*
X7307500Y-15803214D01*
X7436071Y-16103214D02*
X7436071Y-15946071D01*
X7421786Y-15917500D01*
X7393214Y-15903214D01*
X7350357Y-15903214D01*
X7321786Y-15917500D01*
X7307500Y-15931786D01*
X7621786Y-16103214D02*
X7593214Y-16088929D01*
X7578928Y-16074643D01*
X7564643Y-16046071D01*
X7564643Y-15960357D01*
X7578928Y-15931786D01*
X7593214Y-15917500D01*
X7621786Y-15903214D01*
X7664643Y-15903214D01*
X7693214Y-15917500D01*
X7707500Y-15931786D01*
X7721786Y-15960357D01*
X7721786Y-16046071D01*
X7707500Y-16074643D01*
X7693214Y-16088929D01*
X7664643Y-16103214D01*
X7621786Y-16103214D01*
X7893214Y-16103214D02*
X7864643Y-16088929D01*
X7850357Y-16060357D01*
X7850357Y-15803214D01*
X8121786Y-16088929D02*
X8093214Y-16103214D01*
X8036071Y-16103214D01*
X8007500Y-16088929D01*
X7993214Y-16060357D01*
X7993214Y-15946071D01*
X8007500Y-15917500D01*
X8036071Y-15903214D01*
X8093214Y-15903214D01*
X8121786Y-15917500D01*
X8136071Y-15946071D01*
X8136071Y-15974643D01*
X7993214Y-16003214D01*
X8250357Y-16088929D02*
X8278928Y-16103214D01*
X8336071Y-16103214D01*
X8364643Y-16088929D01*
X8378928Y-16060357D01*
X8378928Y-16046071D01*
X8364643Y-16017500D01*
X8336071Y-16003214D01*
X8293214Y-16003214D01*
X8264643Y-15988929D01*
X8250357Y-15960357D01*
X8250357Y-15946071D01*
X8264643Y-15917500D01*
X8293214Y-15903214D01*
X8336071Y-15903214D01*
X8364643Y-15917500D01*
X8478928Y-16217500D02*
X8493214Y-16203214D01*
X8521786Y-16160357D01*
X8536071Y-16131786D01*
X8550357Y-16088929D01*
X8564643Y-16017500D01*
X8564643Y-15960357D01*
X8550357Y-15888929D01*
X8536071Y-15846071D01*
X8521786Y-15817500D01*
X8493214Y-15774643D01*
X8478928Y-15760357D01*
X9021786Y-16217500D02*
X9007500Y-16203214D01*
X8978928Y-16160357D01*
X8964643Y-16131786D01*
X8950357Y-16088929D01*
X8936071Y-16017500D01*
X8936071Y-15960357D01*
X8950357Y-15888929D01*
X8964643Y-15846071D01*
X8978928Y-15817500D01*
X9007500Y-15774643D01*
X9021786Y-15760357D01*
X9136071Y-15903214D02*
X9136071Y-16103214D01*
X9136071Y-15931786D02*
X9150357Y-15917500D01*
X9178928Y-15903214D01*
X9221786Y-15903214D01*
X9250357Y-15917500D01*
X9264643Y-15946071D01*
X9264643Y-16103214D01*
X9450357Y-16103214D02*
X9421786Y-16088929D01*
X9407500Y-16074643D01*
X9393214Y-16046071D01*
X9393214Y-15960357D01*
X9407500Y-15931786D01*
X9421786Y-15917500D01*
X9450357Y-15903214D01*
X9493214Y-15903214D01*
X9521786Y-15917500D01*
X9536071Y-15931786D01*
X9550357Y-15960357D01*
X9550357Y-16046071D01*
X9536071Y-16074643D01*
X9521786Y-16088929D01*
X9493214Y-16103214D01*
X9450357Y-16103214D01*
X9636071Y-15903214D02*
X9750357Y-15903214D01*
X9678928Y-15803214D02*
X9678928Y-16060357D01*
X9693214Y-16088929D01*
X9721786Y-16103214D01*
X9750357Y-16103214D01*
X10078928Y-15903214D02*
X10078928Y-16203214D01*
X10078928Y-15917500D02*
X10107500Y-15903214D01*
X10164643Y-15903214D01*
X10193214Y-15917500D01*
X10207500Y-15931786D01*
X10221786Y-15960357D01*
X10221786Y-16046071D01*
X10207500Y-16074643D01*
X10193214Y-16088929D01*
X10164643Y-16103214D01*
X10107500Y-16103214D01*
X10078928Y-16088929D01*
X10393214Y-16103214D02*
X10364643Y-16088929D01*
X10350357Y-16060357D01*
X10350357Y-15803214D01*
X10636071Y-16103214D02*
X10636071Y-15946071D01*
X10621786Y-15917500D01*
X10593214Y-15903214D01*
X10536071Y-15903214D01*
X10507500Y-15917500D01*
X10636071Y-16088929D02*
X10607500Y-16103214D01*
X10536071Y-16103214D01*
X10507500Y-16088929D01*
X10493214Y-16060357D01*
X10493214Y-16031786D01*
X10507500Y-16003214D01*
X10536071Y-15988929D01*
X10607500Y-15988929D01*
X10636071Y-15974643D01*
X10736071Y-15903214D02*
X10850357Y-15903214D01*
X10778928Y-15803214D02*
X10778928Y-16060357D01*
X10793214Y-16088929D01*
X10821786Y-16103214D01*
X10850357Y-16103214D01*
X11064643Y-16088929D02*
X11036071Y-16103214D01*
X10978928Y-16103214D01*
X10950357Y-16088929D01*
X10936071Y-16060357D01*
X10936071Y-15946071D01*
X10950357Y-15917500D01*
X10978928Y-15903214D01*
X11036071Y-15903214D01*
X11064643Y-15917500D01*
X11078928Y-15946071D01*
X11078928Y-15974643D01*
X10936071Y-16003214D01*
X11336071Y-16103214D02*
X11336071Y-15803214D01*
X11336071Y-16088929D02*
X11307500Y-16103214D01*
X11250357Y-16103214D01*
X11221786Y-16088929D01*
X11207500Y-16074643D01*
X11193214Y-16046071D01*
X11193214Y-15960357D01*
X11207500Y-15931786D01*
X11221786Y-15917500D01*
X11250357Y-15903214D01*
X11307500Y-15903214D01*
X11336071Y-15917500D01*
X11450357Y-16217500D02*
X11464643Y-16203214D01*
X11493214Y-16160357D01*
X11507500Y-16131786D01*
X11521786Y-16088929D01*
X11536071Y-16017500D01*
X11536071Y-15960357D01*
X11521786Y-15888929D01*
X11507500Y-15846071D01*
X11493214Y-15817500D01*
X11464643Y-15774643D01*
X11450357Y-15760357D01*
M02*
