M48
; DRILL file {KiCad 5.1.6+dfsg1-1~bpo10+1} date Sun Aug 30 14:56:31 2020
; FORMAT={-:-/ absolute / metric / decimal}
; #@! TF.CreationDate,2020-08-30T14:56:31+02:00
; #@! TF.GenerationSoftware,Kicad,Pcbnew,5.1.6+dfsg1-1~bpo10+1
; #@! TF.FileFunction,Plated,1,4,PTH
FMAT,2
METRIC
T1C0.400
T2C0.800
T3C0.850
T4C0.900
T5C1.000
T6C1.020
T7C1.100
T8C1.300
T9C1.500
T10C1.600
T11C1.700
T12C2.000
T13C4.300
%
G90
G05
T1
X67.0Y-86.25
X67.0Y-110.25
X67.0Y-144.25
X83.5Y-127.5
X90.75Y-130.25
X103.25Y-63.0
X104.25Y-64.75
X105.75Y-63.0
X105.75Y-66.5
X106.75Y-64.75
X113.725Y-67.275
X113.725Y-68.275
X113.725Y-69.275
X118.0Y-116.5
X118.0Y-118.5
X118.0Y-119.5
X118.0Y-121.5
X118.25Y-107.25
X118.25Y-108.25
X118.25Y-109.25
X118.25Y-110.25
X118.75Y-84.0
X118.75Y-87.5
X118.75Y-103.0
X121.0Y-81.0
X121.0Y-82.4
X121.5Y-104.5
X121.5Y-105.5
X121.5Y-106.5
X121.5Y-107.5
X121.75Y-111.5
X121.75Y-116.5
X121.75Y-117.5
X121.75Y-118.5
X121.75Y-119.5
X121.75Y-120.5
X122.25Y-127.5
X123.5Y-65.75
X123.5Y-127.5
X124.75Y-69.25
X124.75Y-127.5
X125.25Y-102.0
X125.25Y-103.25
X126.0Y-127.5
X127.0Y-106.5
X127.25Y-127.5
X127.5Y-90.0
X128.25Y-104.5
X128.5Y-127.5
X129.75Y-127.5
X130.25Y-81.0
X130.3Y-86.1
X131.0Y-127.5
X133.75Y-126.25
X133.75Y-127.5
X134.0Y-70.5
X134.5Y-106.9
X134.75Y-63.0
X135.63Y-103.27
X135.75Y-64.75
X136.0Y-97.0
X136.0Y-98.75
X137.25Y-63.0
X137.25Y-66.5
X137.5Y-84.0
X137.5Y-100.75
X138.25Y-64.75
X139.5Y-84.0
X141.0Y-102.75
X141.25Y-100.0
X142.0Y-80.0
X142.0Y-84.0
X143.25Y-100.0
X143.25Y-114.25
X143.25Y-117.25
X143.25Y-121.7
X143.25Y-127.25
X143.25Y-134.75
X145.5Y-139.25
X146.0Y-124.5
X146.75Y-71.2
X147.0Y-113.0
X147.25Y-84.0
X147.25Y-97.75
X147.25Y-119.0
X147.25Y-132.0
X147.75Y-71.2
X148.25Y-126.75
X148.5Y-97.75
X148.75Y-71.2
X152.0Y-125.5
X152.5Y-147.25
X153.0Y-142.5
X154.0Y-125.5
X154.25Y-94.0
X154.25Y-95.75
X154.5Y-138.9
X154.564Y-99.564
X155.0Y-65.75
X155.244Y-89.525
X155.25Y-88.5
X156.0Y-95.75
X156.25Y-69.25
X156.5Y-143.5
X157.0Y-97.0
X157.2Y-85.1
X157.25Y-95.75
X157.25Y-102.0
X157.25Y-103.0
X157.25Y-105.25
X157.3Y-106.25
X157.3Y-107.25
X157.5Y-131.5
X158.5Y-89.0
X158.5Y-90.75
X158.75Y-94.0
X159.75Y-94.0
X160.0Y-65.0
X160.25Y-89.0
X160.5Y-105.25
X160.5Y-142.5
X160.75Y-94.0
X161.0Y-97.5
X161.0Y-85.5
X161.5Y-89.0
X162.0Y-85.5
X162.25Y-97.5
X162.75Y-89.0
X163.0Y-85.5
X163.5Y-94.0
X164.0Y-85.5
X164.0Y-110.8
X165.0Y-85.5
X165.25Y-97.5
X165.5Y-144.75
X165.746Y-103.75
X165.75Y-80.5
X165.75Y-101.75
X165.75Y-102.75
X165.75Y-104.75
X166.056Y-85.481
X166.511Y-97.511
X166.75Y-90.25
X166.75Y-92.75
X167.5Y-114.2
X168.0Y-144.75
X168.75Y-100.0
X170.0Y-111.0
X170.0Y-113.5
X170.077Y-96.673
X171.0Y-90.0
X171.0Y-117.75
X171.4Y-106.2
X172.5Y-78.0
X172.5Y-88.5
X172.6Y-106.2
X174.0Y-106.2
X175.2Y-106.2
X175.2Y-108.2
X175.75Y-96.75
X176.4Y-106.2
X176.4Y-108.2
X176.6Y-101.0
X177.0Y-117.75
X177.0Y-135.25
X177.5Y-96.75
X177.6Y-106.2
X177.6Y-108.2
X177.6Y-113.5
X178.5Y-117.75
X178.8Y-106.2
X178.8Y-108.2
X179.5Y-91.25
X179.75Y-126.75
X180.0Y-108.2
X181.75Y-126.75
X183.25Y-96.75
X183.75Y-69.0
X185.5Y-116.5
X185.5Y-144.0
X187.19Y-66.75
X187.25Y-72.0
X187.25Y-77.75
X187.261Y-76.489
X188.5Y-65.25
X188.511Y-72.761
X189.0Y-143.1
X191.0Y-65.25
X191.0Y-72.75
X191.5Y-143.1
X192.25Y-77.75
X192.25Y-83.75
X195.75Y-63.5
X200.2Y-71.9
X208.75Y-72.25
X214.5Y-70.0
X214.5Y-74.5
X218.0Y-71.25
X221.0Y-71.25
X221.0Y-75.75
X227.0Y-78.75
T2
X161.5Y-68.92
X161.5Y-71.46
X161.5Y-74.0
X161.5Y-53.42
X161.5Y-55.96
X161.5Y-58.5
X177.5Y-68.92
X177.5Y-71.46
X177.5Y-74.0
X169.5Y-53.42
X169.5Y-55.96
X169.5Y-58.5
X169.5Y-68.92
X169.5Y-71.46
X169.5Y-74.0
X185.5Y-53.42
X185.5Y-55.96
X185.5Y-58.5
X158.75Y-146.5
X161.29Y-146.5
X163.83Y-146.5
X153.5Y-53.42
X153.5Y-55.96
X153.5Y-58.5
X177.5Y-53.42
X177.5Y-55.96
X177.5Y-58.5
T3
X36.25Y-66.22
X36.25Y-68.76
X36.25Y-71.3
X36.25Y-73.84
X36.25Y-78.92
X36.25Y-81.46
X36.25Y-84.0
X35.0Y-56.0
X37.54Y-56.0
X40.08Y-56.0
X45.16Y-56.0
X47.7Y-56.0
X50.24Y-56.0
X52.78Y-56.0
T4
X25.4Y-122.5
X25.4Y-127.6
X40.6Y-122.5
X40.6Y-127.6
X227.0Y-71.21
X227.0Y-73.75
T5
X186.5Y-86.1
X100.0Y-116.5
X100.0Y-119.04
X100.0Y-121.58
X100.0Y-124.12
X100.0Y-126.66
X100.0Y-129.2
X38.5Y-101.42
X38.5Y-106.5
X38.5Y-91.42
X38.5Y-96.5
X201.22Y-77.0
X201.22Y-79.54
X203.76Y-77.0
X203.76Y-79.54
X206.3Y-77.0
X206.3Y-79.54
X208.84Y-77.0
X208.84Y-79.54
X211.38Y-77.0
X211.38Y-79.54
X213.92Y-77.0
X213.92Y-79.54
X216.46Y-77.0
X216.46Y-79.54
X219.0Y-77.0
X219.0Y-79.54
X28.0Y-132.5
X38.0Y-132.5
X114.64Y-143.0
X114.64Y-145.54
X117.18Y-143.0
X117.18Y-145.54
X119.72Y-143.0
X119.72Y-145.54
X122.26Y-143.0
X122.26Y-145.54
X124.8Y-143.0
X124.8Y-145.54
X127.34Y-143.0
X127.34Y-145.54
X129.88Y-143.0
X129.88Y-145.54
X132.42Y-143.0
X132.42Y-145.54
X134.96Y-143.0
X134.96Y-145.54
X137.5Y-143.0
X137.5Y-145.54
X28.0Y-117.5
X38.0Y-117.5
X184.25Y-104.75
X184.25Y-107.29
X184.25Y-109.83
X186.79Y-104.75
X186.79Y-107.29
X186.79Y-109.83
X201.22Y-65.0
X201.22Y-67.54
X203.76Y-65.0
X203.76Y-67.54
X206.3Y-65.0
X206.3Y-67.54
X208.84Y-65.0
X208.84Y-67.54
X211.38Y-65.0
X211.38Y-67.54
X213.92Y-65.0
X213.92Y-67.54
X216.46Y-65.0
X216.46Y-67.54
X219.0Y-65.0
X219.0Y-67.54
X107.96Y-86.94
X107.96Y-89.48
X107.96Y-92.02
X107.96Y-94.56
X107.96Y-97.1
X107.96Y-99.64
X107.96Y-102.18
X107.96Y-104.72
X107.96Y-107.26
X107.96Y-109.8
X107.96Y-112.34
X107.96Y-114.88
X107.96Y-117.42
X107.96Y-119.96
X107.96Y-122.5
X107.96Y-125.04
X107.96Y-127.58
X107.96Y-130.12
X107.96Y-132.66
X107.96Y-135.2
X110.5Y-86.94
X110.5Y-89.48
X110.5Y-92.02
X110.5Y-94.56
X110.5Y-97.1
X110.5Y-99.64
X110.5Y-102.18
X110.5Y-104.72
X110.5Y-107.26
X110.5Y-109.8
X110.5Y-112.34
X110.5Y-114.88
X110.5Y-117.42
X110.5Y-119.96
X110.5Y-122.5
X110.5Y-125.04
X110.5Y-127.58
X110.5Y-130.12
X110.5Y-132.66
X110.5Y-135.2
X100.0Y-91.0
X100.0Y-93.54
X100.0Y-96.08
X102.54Y-91.0
X102.54Y-93.54
X102.54Y-96.08
X100.0Y-102.38
X100.0Y-104.92
X100.0Y-107.46
X100.0Y-110.0
X102.54Y-102.38
X102.54Y-104.92
X102.54Y-107.46
X102.54Y-110.0
X160.0Y-115.0
X160.0Y-117.54
X160.0Y-120.08
X160.0Y-122.62
X160.0Y-125.16
X160.0Y-127.7
X160.0Y-130.24
X160.0Y-132.78
X160.0Y-135.32
X160.0Y-137.86
X162.54Y-115.0
X162.54Y-117.54
X162.54Y-120.08
X162.54Y-122.62
X162.54Y-125.16
X162.54Y-127.7
X162.54Y-130.24
X162.54Y-132.78
X162.54Y-135.32
X162.54Y-137.86
T6
X182.0Y-91.5
X184.54Y-91.5
X187.08Y-91.5
T7
X23.5Y-63.92
X23.5Y-66.46
X23.5Y-69.0
T8
X90.1Y-56.0
X95.18Y-56.0
X100.26Y-56.0
X105.34Y-56.0
X110.42Y-56.0
X115.5Y-56.0
X121.6Y-56.0
X126.68Y-56.0
X131.76Y-56.0
X136.84Y-56.0
X141.92Y-56.0
X147.0Y-56.0
X26.0Y-75.0
X26.0Y-80.08
X58.6Y-56.0
X63.68Y-56.0
X68.76Y-56.0
X73.84Y-56.0
X78.92Y-56.0
X84.0Y-56.0
X26.0Y-86.5
X26.0Y-91.58
X26.0Y-96.66
X26.0Y-101.74
X26.0Y-106.82
X26.0Y-111.9
T9
X67.0Y-79.8
X67.0Y-116.8
X67.0Y-137.8
X204.0Y-55.5
X213.5Y-55.5
X223.0Y-55.5
X196.1Y-147.0
X201.55Y-147.0
X207.0Y-147.0
X194.5Y-55.5
X171.0Y-137.75
X47.0Y-67.0
X47.0Y-87.8
X92.0Y-79.8
X92.0Y-87.8
X213.1Y-147.0
X218.55Y-147.0
X224.0Y-147.0
X47.0Y-125.0
X47.0Y-145.8
X92.0Y-137.8
X92.0Y-145.8
X47.0Y-96.0
X47.0Y-116.8
X92.0Y-108.8
X92.0Y-116.8
X171.0Y-127.0
T10
X215.0Y-104.0
X215.0Y-112.0
X223.0Y-104.0
X223.0Y-112.0
X197.0Y-104.0
X197.0Y-112.0
X205.0Y-104.0
X205.0Y-112.0
X215.0Y-86.0
X215.0Y-94.0
X223.0Y-86.0
X223.0Y-94.0
X197.0Y-86.0
X197.0Y-94.0
X205.0Y-86.0
X205.0Y-94.0
T11
X191.96Y-52.96
X191.96Y-58.04
X197.04Y-52.96
X197.04Y-58.04
X168.46Y-135.21
X168.46Y-140.29
X173.54Y-135.21
X173.54Y-140.29
X168.46Y-124.46
X168.46Y-129.54
X173.54Y-124.46
X173.54Y-129.54
X201.46Y-52.96
X201.46Y-58.04
X206.54Y-52.96
X206.54Y-58.04
X210.96Y-52.96
X210.96Y-58.04
X216.04Y-52.96
X216.04Y-58.04
X220.46Y-52.96
X220.46Y-58.04
X225.54Y-52.96
X225.54Y-58.04
T12
X189.5Y-125.5
X199.5Y-125.5
X220.5Y-126.0
X230.5Y-126.0
T13
X201.0Y-90.0
X219.0Y-108.0
X201.0Y-108.0
X219.0Y-90.0
X27.0Y-57.0
X27.0Y-143.0
X233.0Y-143.0
X233.0Y-57.0
T0
M30
